<?xml version="1.0" encoding="utf-8"?>
<!-- Generator: Adobe Illustrator 18.1.1, SVG Export Plug-In . SVG Version: 6.00 Build 0)  -->
<!DOCTYPE svg PUBLIC "-//W3C//DTD SVG 1.1//EN" "http://www.w3.org/Graphics/SVG/1.1/DTD/svg11.dtd">
<svg version="1.1" id="Layer_1" xmlns="http://www.w3.org/2000/svg" xmlns:xlink="http://www.w3.org/1999/xlink" x="0px" y="0px"
	 viewBox="0 0 427.4 57.5" enable-background="new 0 0 427.4 57.5" xml:space="preserve">
<path fill="#FFFFFF" d="M136,23.1c5.6,1.9,12.9,4.2,12.4,12c-0.4,5.9-5.6,10.4-13.2,10.4c-5.1,0-9.1-1.1-13.3-3.3
	c-0.4-0.2-0.6-0.8-0.4-1.2l2.4-4.5c0.2-0.4,0.8-0.6,1.2-0.4c3.2,1.5,6.4,2.6,9.7,2.6c3.2,0,5.4-1.3,5.8-3.5c0.4-2.6-2.3-4-5.8-5.1
	c-5.5-1.7-12.8-3.5-12.8-11.3c0-6.6,4.9-10.6,11.8-10.6c2,0,6.7,0.4,12.4,3c0.4,0.2,0.6,0.7,0.4,1.2l-1.9,4.5
	c-0.2,0.5-0.7,0.7-1.2,0.5c-2.1-0.9-6.1-2.3-9.2-2.3c-2.5,0-4.8,0.8-4.9,3.4C129.4,20.8,132.4,21.8,136,23.1"/>
<path fill="#FFFFFF" d="M162.6,15.5h-8.9c-0.5,0-0.9-0.4-0.9-0.9v-5c0-0.5,0.4-0.9,0.9-0.9H179c0.5,0,0.9,0.4,0.9,0.9v5
	c0,0.5-0.4,0.9-0.9,0.9h-9v28.7c0,0.5-0.4,0.9-0.9,0.9h-5.6c-0.5,0-0.9-0.4-0.9-0.9V15.5z"/>
<path fill="#FFFFFF" d="M193.6,44.2c0,0.5-0.4,0.9-0.9,0.9h-5.5c-0.5,0-0.9-0.4-0.9-0.9V9.6c0-0.5,0.4-0.9,0.9-0.9h12.9
	c9.9,0,13,6.9,13,11.8c0,5.2-3.1,9-7.2,10.8l6.1,13c0.2,0.4-0.1,0.8-0.5,0.8h-6.2c-0.5,0-1-0.3-1.2-0.8l-5.5-11.8h-4.9V44.2z
	 M205.7,20.5c0-1.8-0.9-5.1-5.3-5.1h-6.7v10.2h6.9C204.8,25.5,205.7,22.1,205.7,20.5"/>
<path fill="#FFFFFF" d="M228.2,30.5v7.8h16.5c0.5,0,0.9,0.4,0.9,0.9v5c0,0.5-0.4,0.9-0.9,0.9h-22.9c-0.5,0-0.9-0.4-0.9-0.9V9.6
	c0-0.5,0.4-0.9,0.9-0.9h22.9c0.5,0,0.9,0.4,0.9,0.9v5c0,0.5-0.4,0.9-0.9,0.9h-16.5v8.3h12.7c0.5,0,0.9,0.4,0.9,0.9v5
	c0,0.5-0.4,0.9-0.9,0.9H228.2z"/>
<path fill="#FFFFFF" d="M261.1,30.5v7.8h16.5c0.5,0,0.9,0.4,0.9,0.9v5c0,0.5-0.4,0.9-0.9,0.9h-22.9c-0.5,0-0.9-0.4-0.9-0.9V9.6
	c0-0.5,0.4-0.9,0.9-0.9h22.9c0.5,0,0.9,0.4,0.9,0.9v5c0,0.5-0.4,0.9-0.9,0.9h-16.5v8.3h12.7c0.5,0,0.9,0.4,0.9,0.9v5
	c0,0.5-0.4,0.9-0.9,0.9H261.1z"/>
<path fill="#FFFFFF" d="M293.7,15.5h-8.9c-0.5,0-0.9-0.4-0.9-0.9v-5c0-0.5,0.4-0.9,0.9-0.9h25.3c0.5,0,0.9,0.4,0.9,0.9v5
	c0,0.5-0.4,0.9-0.9,0.9h-9v28.7c0,0.5-0.4,0.9-0.9,0.9h-5.6c-0.5,0-0.9-0.4-0.9-0.9V15.5z"/>
<path fill="#FFFFFF" d="M342.4,19.1c-0.3,0.4-0.9,0.3-1.2-0.1c-2.1-2.1-5.7-3.9-8.8-3.9c-9.3,0-10.6,8.8-10.6,11.8
	c0,3,1.3,11.7,10.6,11.7c3.2,0,6.6-1.7,9.1-3.6c0.4-0.3,0.9-0.3,1.2,0.1l3,3.7c0.3,0.4,0.3,0.9-0.1,1.3c-3.6,3.4-7.8,5.5-13.3,5.5
	c-13.8,0-18-10.9-18-18.7c0-7.6,4.2-18.6,18-18.6c5.9,0,10.1,2.4,13.6,6.2c0.3,0.3,0.3,0.9-0.1,1.2L342.4,19.1z"/>
<path fill="#FFFFFF" d="M384.2,44.3c0.2,0.4-0.1,0.8-0.5,0.8h-6.4c-0.5,0-1-0.3-1.2-0.8l-3.2-7.7h-11.2l-3.1,7.7
	c-0.2,0.5-0.7,0.8-1.2,0.8h-6.4c-0.4,0-0.7-0.4-0.5-0.8l15.9-35.4c0.2-0.3,0.5-0.6,0.9-0.6c0.4,0,0.8,0.3,0.9,0.6L384.2,44.3z
	 M364.1,30.7h6.5l-3.3-8.1L364.1,30.7z"/>
<path fill="#FFFFFF" d="M397.5,44.2c0,0.5-0.4,0.9-0.9,0.9h-5.5c-0.5,0-0.9-0.4-0.9-0.9V9.6c0-0.5,0.4-0.9,0.9-0.9H404
	c9.9,0,13,6.9,13,11.8c0,5.2-3.1,9-7.2,10.8l6.1,13c0.2,0.4-0.1,0.8-0.5,0.8h-6.2c-0.5,0-1-0.3-1.2-0.8l-5.5-11.8h-4.9V44.2z
	 M409.6,20.5c0-1.8-0.9-5.1-5.3-5.1h-6.7v10.2h6.9C408.7,25.5,409.6,22.1,409.6,20.5"/>
<path fill="#FFFFFF" d="M59.6,39.1L59.6,39.1c-0.4-0.5-0.7-0.9-1.1-1.3c-0.2-0.2-0.4-0.3-0.7-0.3c-0.2,0-0.4,0.1-0.6,0.2
	c-1.7,1.3-5.3,3.6-9.6,3.6c-4.9,0-8.5-2-10.8-5.8c-1.7-2.8-2.2-6.3-2.2-8.5c0-2.3,0.6-5.7,2.2-8.6c2.3-3.9,5.9-5.8,10.8-5.8
	c3.7,0,7.3,1.9,9.5,3.7c0.2,0.2,0.4,0.2,0.7,0.2c0.3,0,0.5-0.1,0.7-0.2l1.6-1.6c0.4-0.4,0.4-1,0-1.4c-3.4-3.3-7.4-4.8-12.4-4.8
	c-6.2,0-10.9,2.2-14.1,6.4c-2.4,3.2-3.8,7.6-3.8,12.1c0,4.5,1.4,9,3.8,12.2c3.2,4.3,7.9,6.4,14.1,6.4c4.9,0,8.8-1.4,12.4-4.5
	c0.4-0.4,0.4-0.9,0.1-1.4C59.9,39.4,59.8,39.3,59.6,39.1"/>
<path fill="#FFFFFF" d="M27.7,43.8L9.6,26.3L26.8,10c0.2-0.2,0.3-0.5,0.3-0.7c0-0.3-0.2-0.5-0.5-0.5h-4c-0.7,0-1.2,0.3-1.5,0.6
	L4.8,24.9V9.7c0-0.5-0.4-1-1-1H1c-0.5,0-1,0.4-1,1v34.7c0,0.5,0.4,1,1,1h2.8c0.5,0,1-0.5,1-1V27.8l17.4,17c0.3,0.3,0.8,0.6,1.5,0.6
	h3.8c0.4,0,0.7-0.3,0.7-0.7C28.2,44.3,28,44,27.7,43.8"/>
<path fill="#FFFFFF" d="M76.5,42.1c3,2,8.2,3.3,14.2,3.3c5.9,0,11.2-1.3,14.2-3.3c0.9-0.6,1.5-1.6,1.5-2.7l0-8.1
	c0-0.1-0.1-0.2-0.2-0.1c-2.6,2.5-8.6,4.3-15.4,4.3c-6.9,0-12.8-1.8-15.4-4.3c-0.1-0.1-0.2,0-0.2,0.1l0,8.1
	C75,40.5,75.5,41.5,76.5,42.1 M99.7,36.8c1.2,0,2.2,1,2.2,2.2c0,1.2-1,2.2-2.2,2.2c-1.2,0-2.2-1-2.2-2.2
	C97.5,37.8,98.5,36.8,99.7,36.8 M81.6,36.8c1.2,0,2.2,1,2.2,2.2c0,1.2-1,2.2-2.2,2.2c-1.2,0-2.2-1-2.2-2.2
	C79.4,37.8,80.3,36.8,81.6,36.8"/>
<path fill="#FFFFFF" d="M90.6,33c6.8,0,12.7-1.7,15.3-4.2c0.1-0.1,0.1-0.1,0.1-0.2l-1.4-18.7c0-0.1-0.1-0.2-0.2-0.2
	c-3.1-0.7-8.7-1.1-13.8-1.1c-5.2,0-10.7,0.4-13.8,1.1c-0.1,0-0.2,0.1-0.2,0.2l-1.4,18.7c0,0.1,0,0.2,0.1,0.2
	C78,31.3,83.8,33,90.6,33"/>
<path fill="#FFFFFF" d="M77.2,7.1c3.2-0.6,8.4-1,13.4-1s10.3,0.4,13.4,1c0.2,0,0.4-0.1,0.3-0.3l-0.5-3.8c-0.3-1.8-1.4-3.1-3.1-3.1
	H90.6H80.5c-1.7,0-2.7,1.3-3.1,3.1l-0.5,3.8C76.9,7,77,7.2,77.2,7.1 M86.5,2.1h4.1h4.1c0.6,0,1,0.5,1,1c0,0.6-0.5,1-1,1h-4.1h-4.1
	c-0.6,0-1-0.5-1-1C85.5,2.6,86,2.1,86.5,2.1"/>
<path fill="#FFFFFF" d="M108.4,57.1L101,46.5c-0.1-0.1-0.2-0.2-0.4-0.1c-3.6,1.1-7.1,1.4-10,1.5c-3,0-6.4-0.4-10-1.5
	c-0.1,0-0.3,0-0.4,0.1l-7.4,10.7c-0.1,0.1,0,0.3,0.2,0.3h3.9c0.1,0,0.1,0,0.2-0.1l3.9-5.7c0.1-0.1,0.2-0.1,0.3-0.1h9.4h9.4
	c0.1,0,0.2,0.1,0.3,0.1l3.9,5.7c0,0.1,0.1,0.1,0.2,0.1h3.9C108.4,57.5,108.5,57.3,108.4,57.1"/>
<path fill="#FFFFFF" d="M419.3,9.3c-0.1,0-0.2-0.1-0.2-0.2V9c0-0.1,0.1-0.2,0.2-0.2h2.5c0.1,0,0.2,0.1,0.2,0.2v0.1
	c0,0.1-0.1,0.2-0.2,0.2h-0.9v3.3c0,0.1-0.1,0.2-0.2,0.2h-0.2c-0.1,0-0.2-0.1-0.2-0.2V9.3H419.3z M424.8,12.8c0,0-0.1,0.1-0.1,0.1
	c0,0-0.1,0-0.1-0.1l-1.1-2.6l-0.8,2.4c0,0.1-0.2,0.2-0.3,0.2h-0.3c-0.1,0-0.2-0.1-0.1-0.2l1.3-3.8c0-0.1,0.1-0.1,0.1-0.1
	c0.1,0,0.1,0,0.1,0.1l1.2,2.7l1.2-2.7c0,0,0.1-0.1,0.1-0.1c0,0,0.1,0,0.1,0.1l1.3,3.8c0,0.1,0,0.2-0.1,0.2H427
	c-0.1,0-0.2-0.1-0.3-0.2l-0.8-2.4L424.8,12.8z"/>
</svg>
