<?xml version="1.0" encoding="utf-8"?>
<!-- Generator: Adobe Illustrator 18.1.1, SVG Export Plug-In . SVG Version: 6.00 Build 0)  -->
<!DOCTYPE svg PUBLIC "-//W3C//DTD SVG 1.1//EN" "http://www.w3.org/Graphics/SVG/1.1/DTD/svg11.dtd">
<svg version="1.1" id="Layer_1" xmlns="http://www.w3.org/2000/svg" xmlns:xlink="http://www.w3.org/1999/xlink" x="0px" y="0px"
	 viewBox="0 0 243.9 55.2" enable-background="new 0 0 243.9 55.2" xml:space="preserve">
<path fill="#FFFFFF" d="M9.1,53.4c0,0.7-0.5,1.2-1.2,1.2H1.2c-0.7,0-1.2-0.5-1.2-1.2V3.1c0-0.7,0.5-1.2,1.2-1.2h18.5
	c14.3,0,18.6,9.9,18.6,16.8c0,7.7-5,13.3-11.1,15.7c2.8,6,6.2,13.1,9,19.1c0.2,0.5-0.1,1.1-0.7,1.1H28c-0.8,0-1.4-0.5-1.7-1.1
	l-8.4-17.8H9.1V53.4z M29.1,18.7c0-2.9-1.6-8.6-9-8.6h-11v17.2h11.3C27.5,27.1,29.1,21.4,29.1,18.7"/>
<path fill="#FFFFFF" d="M53.4,0c2.9,0,5.1,2.3,5.1,5.1c0,3-2.3,5.1-5.1,5.1c-2.9,0-5.1-2.1-5.1-5.1C48.3,2.3,50.4,0,53.4,0
	 M57.8,53.4c0,0.7-0.5,1.2-1.2,1.2h-6.6c-0.7,0-1.2-0.5-1.2-1.2V18.1c0-0.7,0.5-1.2,1.2-1.2h6.6c0.7,0,1.2,0.5,1.2,1.2V53.4z"/>
<path fill="#FFFFFF" d="M102,1.9c0.7,0,1.2,0.5,1.2,1.2v50.3c0,0.7-0.5,1.2-1.2,1.2h-3.4c-0.8,0-1.4-0.5-1.6-1.1l-0.7-1.8
	c-3,2.3-6.7,3.5-10.4,3.5c-14,0-18.4-11.4-18.4-19.4c0-7.9,4.3-19.4,18.8-19.4c3,0,5.7,0.6,8,1.4V3.1c0-0.7,0.5-1.2,1.2-1.2H102z
	 M94.3,26.1c-2-1.4-4.9-2.1-7.4-2.1c-8.8,0-10.5,8.3-10.5,11.7c0,2.9,1.2,11.7,9.9,11.7c4,0,6.5-1.9,8-4.1V26.1z"/>
<path fill="#FFFFFF" d="M144.6,48.8c0.4,0.5,0.3,1.4-0.2,1.7c-3.9,3-7.9,4.5-13,4.5c-14.5,0-18.8-11.2-18.8-19.4
	c0-7.9,4.4-19.3,18.8-19.3c9.9,0,15.4,6.3,15.4,16c0,1.3-0.1,2.9-0.4,4.7c-0.1,0.7-0.7,1.2-1.4,1.2h-23.3c0.6,3.7,2.8,8.8,9.7,8.8
	c3,0,6.1-0.8,8.7-2.5c0.5-0.3,1.3-0.2,1.7,0.3L144.6,48.8z M122.1,31.2h16.2c0.2-3.2-1.5-6.9-6.9-7.2
	C125.4,24.2,123.1,27.6,122.1,31.2"/>
<path fill="#FFFFFF" d="M242.9,45.6L242.9,45.6c-0.6-0.7-1.1-1.2-1.6-1.9c-0.2-0.3-0.6-0.5-1-0.5c-0.3,0-0.6,0.1-0.9,0.3
	c-2.5,1.9-7.6,5.1-13.7,5.1c-7,0-12.2-2.8-15.4-8.3c-2.4-4-3.2-9-3.2-12.2c0-3.3,0.8-8.2,3.2-12.2c3.2-5.5,8.4-8.3,15.4-8.3
	c5.2,0,10.4,2.8,13.5,5.3c0.3,0.2,0.6,0.3,1,0.3c0.4,0,0.7-0.1,1-0.4l2.3-2.3c0.5-0.5,0.5-1.4,0-2c-4.9-4.7-10.5-6.9-17.7-6.9
	c-8.8,0-15.6,3.1-20.1,9.2c-3.4,4.6-5.4,10.9-5.4,17.2c0,6.5,2,12.8,5.4,17.4c4.5,6.1,11.3,9.2,20.1,9.2c7,0,12.6-2,17.7-6.4
	c0.5-0.5,0.6-1.3,0.2-2C243.4,46.1,243.1,45.8,242.9,45.6"/>
<path fill="#FFFFFF" d="M197.3,52.3l-25.9-25L196,4c0.3-0.3,0.4-0.7,0.4-1c0-0.4-0.3-0.8-0.8-0.8h-5.8c-1,0-1.7,0.4-2.1,0.8
	l-23.3,22.4V3.6c0-0.7-0.6-1.4-1.4-1.4h-4.1c-0.7,0-1.4,0.6-1.4,1.4v49.6c0,0.7,0.6,1.4,1.4,1.4h4.1c0.7,0,1.4-0.6,1.4-1.4V29.4
	l24.9,24.3c0.4,0.4,1.1,0.8,2.1,0.8h5.5c0.5,0,0.9-0.4,0.9-0.9C197.9,53,197.7,52.6,197.3,52.3"/>
</svg>
