<?xml version="1.0" encoding="utf-8"?>
<!-- Generator: Adobe Illustrator 18.1.1, SVG Export Plug-In . SVG Version: 6.00 Build 0)  -->
<!DOCTYPE svg PUBLIC "-//W3C//DTD SVG 1.1//EN" "http://www.w3.org/Graphics/SVG/1.1/DTD/svg11.dtd">
<svg version="1.1" id="Layer_1" xmlns="http://www.w3.org/2000/svg" xmlns:xlink="http://www.w3.org/1999/xlink" x="0px" y="0px"
	 viewBox="0 0 130.9 139" enable-background="new 0 0 130.9 139" xml:space="preserve">
<path fill="#0081C5" d="M130.9,127.3L92.5,84.9c7.3-9,11.6-20.4,11.6-32.8C104.2,23.3,80.8,0,52.1,0S0,23.3,0,52.1
	s23.3,52.1,52.1,52.1c10,0,19.4-2.9,27.4-7.8L118,139L130.9,127.3z M18.7,52.1c0-18.4,15-33.4,33.4-33.4c18.4,0,33.4,15,33.4,33.4
	c0,18.4-15,33.4-33.4,33.4C33.6,85.5,18.7,70.5,18.7,52.1z"/>
</svg>
