<?xml version="1.0" encoding="utf-8"?>
<!-- Generator: Adobe Illustrator 18.1.1, SVG Export Plug-In . SVG Version: 6.00 Build 0)  -->
<!DOCTYPE svg PUBLIC "-//W3C//DTD SVG 1.1//EN" "http://www.w3.org/Graphics/SVG/1.1/DTD/svg11.dtd">
<svg version="1.1" id="Layer_1" xmlns="http://www.w3.org/2000/svg" xmlns:xlink="http://www.w3.org/1999/xlink" x="0px" y="0px"
	 viewBox="0 0 195 195" enable-background="new 0 0 195 195" xml:space="preserve">
<g id="XMLID_7_">
	<circle id="XMLID_3_" fill="#FFFFFF" cx="97.5" cy="97.5" r="72.5"/>
	<path id="XMLID_139_" fill="#015890" d="M97.5,0C43.7,0,0,43.7,0,97.5S43.7,195,97.5,195c53.9,0,97.5-43.7,97.5-97.5
		S151.4,0,97.5,0z M123.1,81.4c0,0.7,0,1.3,0,2c0,20.5-14.5,44.2-41.1,44.2c-8.2,0-15.7-2.6-22.1-7c1.1,0.1,2.3,0.2,3.4,0.2
		c6.8,0,13-2.5,17.9-6.6c-6.3-0.1-11.6-4.6-13.5-10.8c0.9,0.2,1.8,0.3,2.7,0.3c1.3,0,2.6-0.2,3.8-0.5c-6.6-1.5-11.6-7.7-11.6-15.2
		v-0.2c1.9,1.2,4.2,1.8,6.5,1.9c-3.9-2.7-6.4-7.5-6.4-12.9c0-2.9,0.7-5.5,1.9-7.8c7.1,9.4,17.8,15.6,29.7,16.2
		c-0.2-1.1-0.4-2.3-0.4-3.5c0-8.6,6.5-15.5,14.4-15.5c4.1,0,7.9,1.9,10.5,4.9c3.3-0.7,6.4-2,9.2-3.8c-1.1,3.6-3.4,6.7-6.4,8.6
		c2.9-0.4,5.7-1.2,8.3-2.4C128.4,76.5,125.9,79.2,123.1,81.4z"/>
</g>
</svg>
