<?xml version="1.0" encoding="utf-8"?>
<!-- Generator: Adobe Illustrator 18.1.1, SVG Export Plug-In . SVG Version: 6.00 Build 0)  -->
<!DOCTYPE svg PUBLIC "-//W3C//DTD SVG 1.1//EN" "http://www.w3.org/Graphics/SVG/1.1/DTD/svg11.dtd">
<svg version="1.1" id="Layer_1" xmlns="http://www.w3.org/2000/svg" xmlns:xlink="http://www.w3.org/1999/xlink" x="0px" y="0px"
	 viewBox="0 0 193.7 193.7" enable-background="new 0 0 193.7 193.7" xml:space="preserve">
<g id="XMLID_18_">
	<circle id="XMLID_14_" fill="#FFFFFF" cx="96.9" cy="96.9" r="72"/>
	<path id="XMLID_108_" fill="#015890" d="M96.9,0C43.4,0,0,43.4,0,96.9s43.4,96.9,96.9,96.9c53.5,0,96.9-43.4,96.9-96.9
		S150.3,0,96.9,0z M114.5,106.6c-8.5,11-15.6,16.5-21.5,16.5c-3.6,0-6.7-3.4-9.2-10.1c-1.7-6.2-3.3-12.3-5-18.5
		c-1.9-6.7-3.9-10.1-6-10.1c-0.5,0-2.1,1-4.9,2.9L65,83.7c3.1-2.7,6.1-5.4,9.1-8.1c4.1-3.5,7.2-5.4,9.2-5.6c4.8-0.5,7.8,2.9,8.9,10
		c1.2,7.7,2,12.4,2.5,14.3c1.4,6.4,2.9,9.5,4.6,9.5c1.3,0,3.3-2.1,5.9-6.2c2.6-4.1,4-7.3,4.2-9.4c0.4-3.6-1-5.3-4.2-5.3
		c-1.5,0-3,0.3-4.6,1c3.1-10,8.9-14.9,17.5-14.6c6.4,0.2,9.4,4.3,9,12.5C127,87.8,122.7,96.1,114.5,106.6z"/>
</g>
</svg>
