<?xml version="1.0" encoding="utf-8"?>
<!-- Generator: Adobe Illustrator 18.1.1, SVG Export Plug-In . SVG Version: 6.00 Build 0)  -->
<!DOCTYPE svg PUBLIC "-//W3C//DTD SVG 1.1//EN" "http://www.w3.org/Graphics/SVG/1.1/DTD/svg11.dtd">
<svg version="1.1" id="Layer_1" xmlns="http://www.w3.org/2000/svg" xmlns:xlink="http://www.w3.org/1999/xlink" x="0px" y="0px"
	 viewBox="0 0 36.6 556.6" enable-background="new 0 0 36.6 556.6" xml:space="preserve">
<polygon fill="#F7CE3C" points="36.6,524.6 0,507.5 0,539.6 36.6,556.6 "/>
<polygon fill="#F7CE3C" points="36.6,461.1 0,444.1 0,476.1 36.6,493.2 "/>
<polygon fill="#F7CE3C" points="36.6,397.7 0,380.6 0,412.7 36.6,429.7 "/>
<polygon fill="#F7CE3C" points="36.6,334.3 0,317.2 0,349.2 36.6,366.3 "/>
<polygon fill="#F7CE3C" points="36.6,270.8 0,253.8 0,285.8 36.6,302.8 "/>
<polygon fill="#F7CE3C" points="36.6,207.4 0,190.3 0,222.4 36.6,239.4 "/>
<polygon fill="#F7CE3C" points="36.6,143.9 0,126.9 0,158.9 36.6,176 "/>
<polygon fill="#F7CE3C" points="36.6,80.5 0,63.4 0,95.5 36.6,112.5 "/>
<polygon fill="#F7CE3C" points="36.6,17 0,0 0,32 36.6,49.1 "/>
</svg>
